<?xml version="1.0" encoding="iso-8859-1"?>
<!-- Uploaded to: SVG Repo, www.svgrepo.com, Generator: SVG Repo Mixer Tools -->
<svg fill="#000000" height="800px" width="800px" version="1.1" id="Layer_1" xmlns="http://www.w3.org/2000/svg" xmlns:xlink="http://www.w3.org/1999/xlink" 
	 viewBox="0 0 503.154 503.154" xml:space="preserve">
<g>
	<g>
		<g>
			<path d="M382.758,80.041L279.536,8.671c-16.72-11.566-39.189-11.558-55.917,0L120.723,79.823
				c-7.411,4.633-11.835,12.615-11.835,21.353v376.798c0,13.883,11.298,25.18,25.18,25.18h235.016
				c13.883,0,25.18-11.298,25.18-25.18V101.176C394.266,92.438,389.842,84.456,382.758,80.041z M352.298,318.499
				c0,3.24-1.872,6.194-4.801,7.588c-1.141,0.537-2.367,0.806-3.592,0.806c-1.905,0-3.785-0.646-5.313-1.897l-87.015-71.193
				l-87.015,71.193c-2.51,2.056-5.993,2.468-8.905,1.091c-2.929-1.393-4.801-4.348-4.801-7.588v-67.148
				c0-2.518,1.133-4.902,3.08-6.497l92.328-75.541c3.089-2.535,7.537-2.535,10.626,0l92.328,75.541
				c1.947,1.595,3.08,3.979,3.08,6.497V318.499z"/>
			<path d="M167.643,255.33v45.459l78.621-64.327c1.544-1.267,3.424-1.897,5.313-1.897s3.769,0.63,5.313,1.897l78.621,64.327V255.33
				l-83.934-68.675L167.643,255.33z"/>
		</g>
	</g>
</g>
</svg>