<?xml version="1.0" encoding="iso-8859-1"?>
<!-- Uploaded to: SVG Repo, www.svgrepo.com, Generator: SVG Repo Mixer Tools -->
<svg fill="#000000" height="800px" width="800px" version="1.1" id="Layer_1" xmlns="http://www.w3.org/2000/svg" xmlns:xlink="http://www.w3.org/1999/xlink" 
	 viewBox="0 0 503.15 503.15" xml:space="preserve">
<g>
	<g>
		<g>
			<path d="M167.641,205.385v45.459l78.621-64.327c1.544-1.267,3.424-1.897,5.313-1.897s3.769,0.63,5.313,1.897l78.621,64.327
				v-45.459l-83.934-68.675L167.641,205.385z"/>
			<path d="M167.641,314.5v45.459l78.621-64.327c1.544-1.267,3.424-1.897,5.313-1.897s3.769,0.63,5.313,1.897l78.621,64.327V314.5
				l-83.934-68.675L167.641,314.5z"/>
			<path d="M382.756,80.037L279.534,8.676C262.814-2.89,240.353-2.89,223.617,8.667l-102.895,71.16
				c-7.411,4.625-11.835,12.615-11.835,21.353v376.79c0,13.883,11.298,25.18,25.18,25.18h235.016c13.883,0,25.18-11.298,25.18-25.18
				V101.18C394.264,92.442,389.84,84.452,382.756,80.037z M352.296,377.668c0,3.24-1.872,6.194-4.801,7.588
				c-1.141,0.537-2.367,0.806-3.592,0.806c-1.905,0-3.785-0.646-5.313-1.897l-87.015-71.193l-87.015,71.193
				c-2.518,2.056-5.984,2.468-8.905,1.091c-2.929-1.393-4.801-4.348-4.801-7.588v-67.148c0-2.518,1.133-4.902,3.08-6.497
				l92.328-75.541c3.089-2.535,7.537-2.535,10.626,0l92.328,75.541c1.947,1.595,3.08,3.979,3.08,6.497V377.668z M352.296,268.553
				c0,3.24-1.872,6.194-4.801,7.588c-1.141,0.537-2.367,0.806-3.592,0.806c-1.905,0-3.785-0.646-5.313-1.897l-87.015-71.193
				L164.56,275.05c-2.518,2.056-5.984,2.468-8.905,1.091c-2.929-1.393-4.801-4.348-4.801-7.588v-67.148
				c0-2.518,1.133-4.902,3.08-6.497l92.328-75.541c3.089-2.535,7.537-2.535,10.626,0l92.328,75.541
				c1.947,1.595,3.08,3.979,3.08,6.497V268.553z"/>
		</g>
	</g>
</g>
</svg>